<?xml version="1.0" encoding="UTF-8" standalone="no"?>
<!DOCTYPE svg PUBLIC "-//W3C//DTD SVG 1.1//EN"
 "http://www.w3.org/Graphics/SVG/1.1/DTD/svg11.dtd">
<!-- Generated by graphviz version 2.30.1 (20130302.1825)
 -->
<!-- Title: Theta Kappa Zeta Family Tree Pages: 1 -->
<svg width="544pt" height="541pt"
 viewBox="0.00 0.00 544.00 541.00" xmlns="http://www.w3.org/2000/svg" xmlns:xlink="http://www.w3.org/1999/xlink">
<g id="graph0" class="graph" transform="scale(1 1) rotate(0) translate(4 537)">
<title>Theta Kappa Zeta Family Tree</title>
<polygon fill="white" stroke="white" points="-4,5 -4,-537 541,-537 541,5 -4,5"/>
<!-- tk1744 -->
<g id="node1" class="node"><title>tk1744</title>
<polygon fill="none" stroke="black" points="307.44,-69.2 307.44,-118.8 388.56,-118.8 388.56,-69.2 307.44,-69.2"/>
<text text-anchor="middle" x="348" y="-100.8" font-family="Times,serif" font-size="14.00">ΘK1744</text>
<polyline fill="none" stroke="black" points="307.44,-94 388.56,-94 "/>
<text text-anchor="middle" x="348" y="-76" font-family="Times,serif" font-size="14.00">Gavin West</text>
</g>
<!-- tk1742 -->
<g id="node2" class="node"><title>tk1742</title>
<polygon fill="none" stroke="black" points="437.824,-207.2 437.824,-256.8 536.176,-256.8 536.176,-207.2 437.824,-207.2"/>
<text text-anchor="middle" x="487" y="-238.8" font-family="Times,serif" font-size="14.00">ΘK1742</text>
<polyline fill="none" stroke="black" points="437.824,-232 536.176,-232 "/>
<text text-anchor="middle" x="487" y="-214" font-family="Times,serif" font-size="14.00">Andrew Tebbe</text>
</g>
<!-- tk1739 -->
<g id="node3" class="node"><title>tk1739</title>
<polygon fill="none" stroke="black" points="165.591,-0.2 165.591,-49.8 250.409,-49.8 250.409,-0.2 165.591,-0.2"/>
<text text-anchor="middle" x="208" y="-31.8" font-family="Times,serif" font-size="14.00">ΘK1739</text>
<polyline fill="none" stroke="black" points="165.591,-25 250.409,-25 "/>
<text text-anchor="middle" x="208" y="-7" font-family="Times,serif" font-size="14.00">Kurt Seibert</text>
</g>
<!-- tk1738 -->
<g id="node4" class="node"><title>tk1738</title>
<polygon fill="none" stroke="black" points="161.712,-276.2 161.712,-325.8 254.288,-325.8 254.288,-276.2 161.712,-276.2"/>
<text text-anchor="middle" x="208" y="-307.8" font-family="Times,serif" font-size="14.00">ΘK1738</text>
<polyline fill="none" stroke="black" points="161.712,-301 254.288,-301 "/>
<text text-anchor="middle" x="208" y="-283" font-family="Times,serif" font-size="14.00">Isaac Sanders</text>
</g>
<!-- tk1733 -->
<g id="node5" class="node"><title>tk1733</title>
<polygon fill="none" stroke="black" points="158.984,-138.2 158.984,-187.8 257.016,-187.8 257.016,-138.2 158.984,-138.2"/>
<text text-anchor="middle" x="208" y="-169.8" font-family="Times,serif" font-size="14.00">ΘK1733</text>
<polyline fill="none" stroke="black" points="158.984,-163 257.016,-163 "/>
<text text-anchor="middle" x="208" y="-145" font-family="Times,serif" font-size="14.00">Cole Hardman</text>
</g>
<!-- tk1731 -->
<g id="node6" class="node"><title>tk1731</title>
<polygon fill="none" stroke="black" points="163.646,-345.2 163.646,-394.8 252.354,-394.8 252.354,-345.2 163.646,-345.2"/>
<text text-anchor="middle" x="208" y="-376.8" font-family="Times,serif" font-size="14.00">ΘK1731</text>
<polyline fill="none" stroke="black" points="163.646,-370 252.354,-370 "/>
<text text-anchor="middle" x="208" y="-352" font-family="Times,serif" font-size="14.00">James Butler</text>
</g>
<!-- tk1728 -->
<g id="node7" class="node"><title>tk1728</title>
<polygon fill="none" stroke="black" points="294.315,-207.2 294.315,-256.8 401.685,-256.8 401.685,-207.2 294.315,-207.2"/>
<text text-anchor="middle" x="348" y="-238.8" font-family="Times,serif" font-size="14.00">ΘK1728</text>
<polyline fill="none" stroke="black" points="294.315,-232 401.685,-232 "/>
<text text-anchor="middle" x="348" y="-214" font-family="Times,serif" font-size="14.00">Richard Shomer</text>
</g>
<!-- tk1728&#45;&gt;tk1742 -->
<g id="edge1" class="edge"><title>tk1728&#45;&gt;tk1742</title>
<path fill="none" stroke="black" d="M401.968,-232C410.319,-232 418.995,-232 427.463,-232"/>
<polygon fill="black" stroke="black" points="427.654,-235.5 437.654,-232 427.654,-228.5 427.654,-235.5"/>
</g>
<!-- tk1721 -->
<g id="node8" class="node"><title>tk1721</title>
<polygon fill="none" stroke="black" points="3.03613,-345.2 3.03613,-394.8 118.964,-394.8 118.964,-345.2 3.03613,-345.2"/>
<text text-anchor="middle" x="61" y="-376.8" font-family="Times,serif" font-size="14.00">ΘK1721</text>
<polyline fill="none" stroke="black" points="3.03613,-370 118.964,-370 "/>
<text text-anchor="middle" x="61" y="-352" font-family="Times,serif" font-size="14.00">John McCormack</text>
</g>
<!-- tk1721&#45;&gt;tk1731 -->
<g id="edge2" class="edge"><title>tk1721&#45;&gt;tk1731</title>
<path fill="none" stroke="black" d="M119.308,-370C130.581,-370 142.367,-370 153.508,-370"/>
<polygon fill="black" stroke="black" points="153.526,-373.5 163.526,-370 153.526,-366.5 153.526,-373.5"/>
</g>
<!-- tk1705 -->
<g id="node9" class="node"><title>tk1705</title>
<polygon fill="none" stroke="black" points="157.809,-207.2 157.809,-256.8 258.191,-256.8 258.191,-207.2 157.809,-207.2"/>
<text text-anchor="middle" x="208" y="-238.8" font-family="Times,serif" font-size="14.00">ΘK1705</text>
<polyline fill="none" stroke="black" points="157.809,-232 258.191,-232 "/>
<text text-anchor="middle" x="208" y="-214" font-family="Times,serif" font-size="14.00">Dyllin Kinman</text>
</g>
<!-- tk1705&#45;&gt;tk1728 -->
<g id="edge3" class="edge"><title>tk1705&#45;&gt;tk1728</title>
<path fill="none" stroke="black" d="M258.431,-232C266.77,-232 275.523,-232 284.148,-232"/>
<polygon fill="black" stroke="black" points="284.18,-235.5 294.18,-232 284.18,-228.5 284.18,-235.5"/>
</g>
<!-- tk1700 -->
<g id="node10" class="node"><title>tk1700</title>
<polygon fill="none" stroke="black" points="163.267,-69.2 163.267,-118.8 252.733,-118.8 252.733,-69.2 163.267,-69.2"/>
<text text-anchor="middle" x="208" y="-100.8" font-family="Times,serif" font-size="14.00">ΘK1700</text>
<polyline fill="none" stroke="black" points="163.267,-94 252.733,-94 "/>
<text text-anchor="middle" x="208" y="-76" font-family="Times,serif" font-size="14.00">Zach Dunbar</text>
</g>
<!-- tk1700&#45;&gt;tk1744 -->
<g id="edge4" class="edge"><title>tk1700&#45;&gt;tk1744</title>
<path fill="none" stroke="black" d="M253.043,-94C267.008,-94 282.548,-94 296.905,-94"/>
<polygon fill="black" stroke="black" points="297.111,-97.5001 307.111,-94 297.111,-90.5001 297.111,-97.5001"/>
</g>
<!-- tk1695 -->
<g id="node11" class="node"><title>tk1695</title>
<polygon fill="none" stroke="black" points="9.10645,-172.2 9.10645,-221.8 112.894,-221.8 112.894,-172.2 9.10645,-172.2"/>
<text text-anchor="middle" x="61" y="-203.8" font-family="Times,serif" font-size="14.00">ΘK1695</text>
<polyline fill="none" stroke="black" points="9.10645,-197 112.894,-197 "/>
<text text-anchor="middle" x="61" y="-179" font-family="Times,serif" font-size="14.00">Travis Stallings</text>
</g>
<!-- tk1695&#45;&gt;tk1705 -->
<g id="edge5" class="edge"><title>tk1695&#45;&gt;tk1705</title>
<path fill="none" stroke="black" d="M113.122,-209.34C124.347,-212.049 136.323,-214.94 147.834,-217.719"/>
<polygon fill="black" stroke="black" points="147.258,-221.18 157.801,-220.124 148.901,-214.376 147.258,-221.18"/>
</g>
<!-- tk1695&#45;&gt;tk1733 -->
<g id="edge6" class="edge"><title>tk1695&#45;&gt;tk1733</title>
<path fill="none" stroke="black" d="M113.122,-185.013C124.715,-182.294 137.109,-179.388 148.966,-176.608"/>
<polygon fill="black" stroke="black" points="149.832,-180 158.769,-174.309 148.234,-173.185 149.832,-180"/>
</g>
<!-- tk1693 -->
<g id="node12" class="node"><title>tk1693</title>
<polygon fill="none" stroke="black" points="1.87744,-276.2 1.87744,-325.8 120.123,-325.8 120.123,-276.2 1.87744,-276.2"/>
<text text-anchor="middle" x="61" y="-307.8" font-family="Times,serif" font-size="14.00">ΘK1693</text>
<polyline fill="none" stroke="black" points="1.87744,-301 120.123,-301 "/>
<text text-anchor="middle" x="61" y="-283" font-family="Times,serif" font-size="14.00">Zachary Reynolds</text>
</g>
<!-- tk1693&#45;&gt;tk1738 -->
<g id="edge7" class="edge"><title>tk1693&#45;&gt;tk1738</title>
<path fill="none" stroke="black" d="M120.142,-301C130.424,-301 141.107,-301 151.319,-301"/>
<polygon fill="black" stroke="black" points="151.342,-304.5 161.342,-301 151.342,-297.5 151.342,-304.5"/>
</g>
<!-- tk1692 -->
<g id="node13" class="node"><title>tk1692</title>
<polygon fill="none" stroke="black" points="0.708496,-414.2 0.708496,-463.8 121.292,-463.8 121.292,-414.2 0.708496,-414.2"/>
<text text-anchor="middle" x="61" y="-445.8" font-family="Times,serif" font-size="14.00">ΘK1692</text>
<polyline fill="none" stroke="black" points="0.708496,-439 121.292,-439 "/>
<text text-anchor="middle" x="61" y="-421" font-family="Times,serif" font-size="14.00">Benjamin McNees</text>
</g>
<!-- tk1688 -->
<g id="node14" class="node"><title>tk1688</title>
<polygon fill="none" stroke="black" points="7.31885,-34.2 7.31885,-83.8 114.681,-83.8 114.681,-34.2 7.31885,-34.2"/>
<text text-anchor="middle" x="61" y="-65.8" font-family="Times,serif" font-size="14.00">ΘK1688</text>
<polyline fill="none" stroke="black" points="7.31885,-59 114.681,-59 "/>
<text text-anchor="middle" x="61" y="-41" font-family="Times,serif" font-size="14.00">Jeremy Bultema</text>
</g>
<!-- tk1688&#45;&gt;tk1700 -->
<g id="edge8" class="edge"><title>tk1688&#45;&gt;tk1700</title>
<path fill="none" stroke="black" d="M114.759,-71.7348C127.282,-74.7577 140.656,-77.9859 153.224,-81.0195"/>
<polygon fill="black" stroke="black" points="152.557,-84.4589 163.099,-83.4031 154.199,-77.6544 152.557,-84.4589"/>
</g>
<!-- tk1688&#45;&gt;tk1739 -->
<g id="edge9" class="edge"><title>tk1688&#45;&gt;tk1739</title>
<path fill="none" stroke="black" d="M114.759,-46.629C128.051,-43.5122 142.302,-40.1706 155.53,-37.0688"/>
<polygon fill="black" stroke="black" points="156.477,-40.4418 165.414,-34.7512 154.879,-33.6266 156.477,-40.4418"/>
</g>
<!-- tk1659 -->
<g id="node15" class="node"><title>tk1659</title>
<polygon fill="none" stroke="black" points="18.1914,-483.2 18.1914,-532.8 103.809,-532.8 103.809,-483.2 18.1914,-483.2"/>
<text text-anchor="middle" x="61" y="-514.8" font-family="Times,serif" font-size="14.00">ΘK1659</text>
<polyline fill="none" stroke="black" points="18.1914,-508 103.809,-508 "/>
<text text-anchor="middle" x="61" y="-490" font-family="Times,serif" font-size="14.00">Calvin Bush</text>
</g>
</g>
</svg>
